<svg xmlns="http://www.w3.org/2000/svg" xmlns:xlink="http://www.w3.org/1999/xlink" width="0" height="0" style="position:absolute">
    <symbol id="ic-instagram" viewBox="0 0 40 40">
        <g>
            <path d="M25.975,33.000 L14.025,33.000 C10.151,33.000 7.000,29.849 7.000,25.975 L7.000,14.025 C7.000,10.151 10.151,7.000 14.025,7.000 L25.975,7.000 C29.849,7.000 33.000,10.151 33.000,14.025 L33.000,25.975 C33.000,29.849 29.849,33.000 25.975,33.000 ZM30.899,14.025 C30.899,11.310 28.690,9.101 25.975,9.101 L14.025,9.101 C11.310,9.101 9.101,11.310 9.101,14.025 L9.101,25.975 C9.101,28.690 11.310,30.899 14.025,30.899 L25.975,30.899 C28.690,30.899 30.899,28.690 30.899,25.975 L30.899,14.025 ZM26.572,14.478 C26.296,14.478 26.025,14.366 25.830,14.170 C25.634,13.975 25.522,13.704 25.522,13.428 C25.522,13.151 25.634,12.881 25.830,12.685 C26.025,12.489 26.296,12.377 26.572,12.377 C26.849,12.377 27.119,12.489 27.315,12.685 C27.511,12.881 27.623,13.151 27.623,13.428 C27.623,13.704 27.511,13.975 27.315,14.170 C27.119,14.366 26.849,14.478 26.572,14.478 ZM24.734,23.421 C23.807,24.672 22.447,25.487 20.907,25.715 C20.617,25.758 20.327,25.780 20.039,25.780 C18.798,25.780 17.594,25.384 16.578,24.631 C15.328,23.703 14.513,22.344 14.285,20.804 C14.056,19.263 14.441,17.726 15.369,16.475 C16.297,15.224 17.656,14.410 19.196,14.181 C19.764,14.097 20.339,14.097 20.907,14.181 C22.153,14.366 23.283,14.935 24.174,15.826 C25.065,16.717 25.634,17.847 25.819,19.093 C26.047,20.634 25.662,22.171 24.734,23.421 ZM23.741,19.401 C23.498,17.765 22.235,16.502 20.599,16.259 C20.417,16.232 20.234,16.219 20.052,16.219 C19.869,16.219 19.686,16.232 19.505,16.259 C18.519,16.405 17.650,16.926 17.056,17.726 C16.463,18.527 16.216,19.510 16.362,20.495 C16.509,21.481 17.030,22.350 17.830,22.944 C18.630,23.537 19.613,23.784 20.599,23.638 C22.633,23.336 24.043,21.435 23.741,19.401 Z"></path>
        </g>
    </symbol>
    <symbol id="face" viewBox="0 0 14 26">
        <g>
            <path fill-rule="evenodd"
                  d="M3.464,5.076 C3.464,4.915 3.486,4.565 3.531,4.032 C3.579,3.494 3.780,2.935 4.142,2.347 C4.500,1.760 5.082,1.234 5.890,0.767 C6.695,0.304 7.859,0.070 9.377,0.070 L13.655,0.070 L13.655,4.745 L10.523,4.745 C10.213,4.745 9.924,4.862 9.663,5.093 C9.403,5.322 9.271,5.542 9.271,5.744 L9.271,8.654 L13.654,8.654 C13.608,9.223 13.557,9.777 13.500,10.311 L13.326,11.724 C13.257,12.200 13.186,12.643 13.117,13.051 L9.239,13.051 L9.239,26.013 L3.464,26.013 L3.464,13.050 L0.646,13.050 L0.646,8.654 L3.464,8.654 L3.464,5.076 Z"/>
        </g>
    </symbol>
    <symbol id="pointer" viewBox="0 0 360 409.7">
            <path d="M248.2,270.6c43.6-68.4,38.1-59.9,39.4-61.6c15.9-22.4,24.3-48.7,24.3-76.2C311.9,60,252.8,0,179.9,0
                c-72.7,0-132,59.9-132,132.8c0,27.4,8.6,54.5,25,77.2l38.7,60.7C70.3,277.1,0,296,0,337.7c0,15.2,9.9,36.9,57.2,53.7
                c33,11.8,76.6,18.3,122.8,18.3c86.4,0,180-24.4,180-72C359.8,295.9,289.6,276.9,248.2,270.6L248.2,270.6z M92.8,196.7
                c-0.1-0.2-0.3-0.4-0.4-0.6c-13.6-18.8-20.6-41-20.6-63.3c0-60,48.3-108.8,108-108.8c59.6,0,108,48.8,108,108.8
                c0,22.4-6.8,43.9-19.7,62.1c-1.2,1.5,4.9-7.8-88.3,138.3L92.8,196.7z M179.8,385.6c-94.4,0-156-27.7-156-48
                c0-13.6,31.7-36,101.8-44.7l44.1,69.2c2.2,3.5,6,5.6,10.1,5.6s7.9-2.1,10.1-5.6l44.1-69.2c70.1,8.7,101.8,31.1,101.8,44.7
                C335.8,357.6,274.7,385.6,179.8,385.6L179.8,385.6z"/>
            <path d="M179.8,72.8c-33.1,0-60,26.9-60,60s26.9,60,60,60s60-26.9,60-60S212.9,72.8,179.8,72.8L179.8,72.8z M179.8,168.8
                c-19.9,0-36-16.1-36-36s16.1-36,36-36s36,16.1,36,36C215.8,152.6,199.7,168.8,179.8,168.8L179.8,168.8z"/>
    </symbol>
    <symbol viewBox="0 0 409.9 410.9" id="phone">
        <g>
            <g>
                <defs>
                    <rect id="SVGID_1_" width="409.9" height="410.9"/>
                </defs>
                <clipPath id="SVGID_2_">
                    <use xlink:href="#SVGID_1_"  style="overflow:visible;"/>
                </clipPath>
                <path clip-path="url(#SVGID_2_)" d="M334.7,312.7l-50.9-50.9c-6.8-6.8-15.8-10.5-25.5-10.5c-9.6,0-18.7,3.7-25.5,10.5l-30.3,30.3
                    c-8.2-0.9-29.3-5.8-54.6-31.1c-25.4-25.4-29.7-46.2-30.4-54.4l30.4-30.4c6.8-6.8,10.5-15.8,10.5-25.5c0-9.6-3.7-18.7-10.5-25.5
                    L97,74.3c-14-14-36.9-14-50.9,0l-17,17l0,0l0,0L29,91.4c-17,17-27.3,39.5-29,63.4s5.2,47.6,19.6,66.9
                    c24.3,32.8,50.3,63.1,77.4,90.2c28.3,28.3,60.3,56,90.2,78.2c17.4,12.9,38.4,19.8,59.9,19.8c2.3,0,4.7-0.1,7.1-0.2
                    c23.9-1.7,46.5-12,63.4-28.9l0.1-0.1l0,0l0,0l17-17c6.8-6.8,10.5-15.8,10.5-25.5C345.3,328.6,341.5,319.5,334.7,312.7
                    L334.7,312.7z M63.2,91.3c4.7-4.7,12.3-4.7,17,0l50.9,50.9c4.7,4.7,4.7,12.3,0,17l-8.5,8.5L54.7,99.8L63.2,91.3z M201.6,370.8
                    c-28.9-21.4-60-48.4-87.5-75.8c-26.2-26.2-51.5-55.6-75-87.5C18.8,180.1,19,144,38.4,117.4c2.3,2.3,65.5,65.5,67.2,67.2l-8.5,8.5
                    c-1.9,1.9-3.1,4.4-3.4,7.1c-0.2,1.5-3.8,36.6,37.4,77.8c30.5,30.5,61.9,39.6,77.4,38.2c2.8-0.2,5.4-1.5,7.4-3.5l8.5-8.5
                    l67.2,67.2C265.2,390.8,229,391,201.6,370.8L201.6,370.8z M317.8,346.7l-8.5,8.5l-67.9-67.9l8.5-8.5c4.7-4.7,12.3-4.7,17,0
                    l50.9,50.9c2.3,2.3,3.5,5.3,3.5,8.5S320,344.4,317.8,346.7L317.8,346.7z"/>
            </g>
        </g>
        <path d="M349.9,59.9C311.4,21.4,260.2,0.2,205.7,0.2c-6.6,0-12,5.4-12,12s5.4,12,12,12c48.1,0,93.3,18.7,127.3,52.6
            c33.9,33.9,52.6,79.1,52.6,127.3c0,6.6,5.4,12,12,12s12-5.4,12-12C409.6,149.6,388.4,98.4,349.9,59.9L349.9,59.9z"/>
        <path d="M316,93.9c-29.4-29.4-68.6-45.6-110.3-45.6c-6.6,0-12,5.4-12,12s5.4,12,12,12c35.3,0,68.4,13.7,93.3,38.6
            c24.9,24.9,38.6,58,38.6,93.3c0,6.6,5.4,12,12,12s12-5.4,12-12C361.6,162.5,345.4,123.3,316,93.9L316,93.9z"/>
        <path d="M282.1,127.8c-20.4-20.4-47.5-31.6-76.4-31.6c-6.6,0-12,5.4-12,12s5.4,12,12,12c22.4,0,43.5,8.7,59.4,24.6
            s24.6,37,24.6,59.4c0,6.6,5.4,12,12,12s12-5.4,12-12C313.7,175.3,302.5,148.2,282.1,127.8L282.1,127.8z"/>
    </symbol>
    <symbol viewBox="0 0 310.6 225.3" id="mail">
        <path d="M299.6,10.4c-3.7-3.7-8.2-6.3-13-8.2h-0.4l-3.3-1.1h-0.7c-1.1-0.4-2.2-0.4-3.3-0.7h-0.7c-1.5,0-2.6-0.4-4.1-0.4H36.6
            c-1.5,0-2.6,0-4.1,0.4h-0.7c-1.1,0-2.2,0.4-3.3,0.7h-0.7l-3.3,1.1h-0.4c-4.8,1.9-9.3,4.8-13,8.2c-0.4,0-0.4,0.4-0.7,0.7l-1.1,1.1
            c-0.4,0.7-1.1,1.1-1.5,1.9l-0.7,0.7c0,0,0,0.4-0.4,0.4C2.6,21.1,0,28.2,0,36v152.9c0,9.6,3.7,18.6,10,24.9c0,0.4,0.4,0.4,0.4,0.7
            c6.7,6.7,15.6,10.8,25.6,10.8h238.2c10,0,18.9-4.1,25.6-10.8c6.7-6.7,10.8-15.6,10.8-25.6V36C310.4,26,306.3,17.1,299.6,10.4z
             M291.5,36.4v152.5c0,1.6-0.2,3.1-0.6,4.6l-88.8-84.7L236.6,81L291.5,36.4z M32.8,19c1.1-0.4,2.2-0.4,3.3-0.4H274
            c1.1,0,2.2,0,3.3,0.4l3.3,1.1l-56,46l-62.7,50.8l-0.4,0.4c-1.9,1.5-4.1,2.2-6.3,2.2s-4.5-0.7-6.3-2.2L85.8,66.1l-56.4-46L32.8,19z
             M19.1,36.4L74,80.9l34.5,28.2l-88.7,84.7c-0.4-1.5-0.7-3.1-0.7-4.9L19.1,36.4L19.1,36.4z M36.5,206.4c-0.8,0-1.6-0.1-2.4-0.2
            l89.2-85.2l13.7,11.1c5.6,4.5,11.9,6.7,18.2,6.3c6.7,0,13-2.2,18.2-6.7l0.4-0.4l13.4-10.8l89.5,85.5c-0.9,0.1-1.7,0.2-2.7,0.2H36.5
            V206.4z"/>
    </symbol>
</svg>




